<?xml version="1.0" encoding="UTF-8" standalone="no"?>
<svg
   xmlns:dc="http://purl.org/dc/elements/1.1/"
   xmlns:cc="http://creativecommons.org/ns#"
   xmlns:rdf="http://www.w3.org/1999/02/22-rdf-syntax-ns#"
   xmlns:svg="http://www.w3.org/2000/svg"
   xmlns="http://www.w3.org/2000/svg"
   xmlns:sodipodi="http://sodipodi.sourceforge.net/DTD/sodipodi-0.dtd"
   xmlns:inkscape="http://www.inkscape.org/namespaces/inkscape"
   version="1.2"
   width="152.41mm"
   height="131.57999mm"
   viewBox="0 0 15241.001 13157.998"
   preserveAspectRatio="xMidYMid"
   xml:space="preserve"
   id="svg4309"
   inkscape:version="0.91 r13725"
   sodipodi:docname="logo2.svg"
   style="fill-rule:evenodd;stroke-width:28.22200012;stroke-linejoin:round"><metadata
     id="metadata4358"><rdf:RDF><cc:Work
         rdf:about=""><dc:format>image/svg+xml</dc:format><dc:type
           rdf:resource="http://purl.org/dc/dcmitype/StillImage" /><dc:title></dc:title></cc:Work></rdf:RDF></metadata><defs
     id="defs4356" /><sodipodi:namedview
     pagecolor="#ffffff"
     bordercolor="#666666"
     borderopacity="1"
     objecttolerance="10"
     gridtolerance="10"
     guidetolerance="10"
     inkscape:pageopacity="0"
     inkscape:pageshadow="2"
     inkscape:window-width="640"
     inkscape:window-height="480"
     id="namedview4354"
     showgrid="false"
     fit-margin-top="0"
     fit-margin-left="0"
     fit-margin-right="0"
     fit-margin-bottom="0"
     inkscape:zoom="1.6173561"
     inkscape:cx="269.99999"
     inkscape:cy="233.13187"
     inkscape:current-layer="Slide_1_page1" /><g
     visibility="visible"
     id="MasterSlide_1_Default"
     style="visibility:visible"
     transform="translate(0,-4.3063696e-4)"><desc
       id="desc4312">Master slide
  </desc><rect
       x="0"
       y="0"
       width="15240"
       height="13157"
       id="rect4314"
       style="fill:none;stroke:none" /></g><g
     visibility="visible"
     id="Slide_1_page1"
     style="visibility:visible"
     transform="translate(0,-4.3063696e-4)"><g
       id="g4317"><path
         d="M 7620,13157 0,13157 0,0 l 15240,0 0,13157 -7620,0 z"
         id="path4319"
         inkscape:connector-curvature="0"
         style="fill:#ffffff;stroke:none" /><rect
         x="0"
         y="0"
         width="15241"
         height="13158"
         id="rect4321"
         style="fill:none;stroke:none" /></g><g
       id="Drawing_2"><path
         d="M 0,0 0,4020 C 2059,3158 4815,2291 8274,1417 10490,858 12632,386 14700,0 L 0,0 Z m 9847,1912 c -1815,458 -3275,924 -4380,1397 -1107,463 -1624,840 -1551,1129 64,255 527,371 1392,346 444,-8 1165,-56 2165,-145 1000,-88 2290,-217 3870,-385 1565,-163 2858,-274 3897,-338 l 0,-3055 c -2008,300 -3808,650 -5393,1051 z m -909,4147 c -786,59 -1761,149 -2927,272 -1809,194 -3312,341 -4508,440 -572,48 -1070,83 -1503,108 l 0,3258 c 2373,-350 4519,-766 6433,-1249 1881,-475 3330,-936 4348,-1383 1017,-448 1486,-824 1409,-1132 -67,-266 -537,-402 -1408,-408 -446,5 -1060,36 -1844,94 z m 6302,1054 C 13154,7935 10566,8736 7474,9517 4593,10244 2104,10767 0,11088 l 0,29 15240,0 0,-4004 z"
         id="path4324"
         inkscape:connector-curvature="0"
         style="fill:#809cc9;stroke:none" /><path
         d="m 656,7792 c 40,0 74,15 103,45 29,29 44,63 44,103 0,42 -15,78 -44,107 -29,29 -64,43 -105,43 -42,0 -77,-14 -106,-43 -29,-30 -44,-65 -44,-107 0,-41 15,-76 44,-105 29,-29 66,-43 108,-43 z m 103,1005 c 29,29 44,64 44,106 0,41 -15,76 -44,105 -31,29 -66,43 -105,43 -21,0 -41,-4 -59,-12 -18,-7 -34,-18 -47,-31 -14,-14 -25,-29 -32,-48 -8,-18 -12,-38 -12,-59 0,-41 15,-76 44,-105 29,-29 66,-44 108,-44 40,0 74,15 103,45 z"
         id="path4326"
         inkscape:connector-curvature="0"
         style="fill:#ffffff;stroke:none" /><path
         d="m 1172,7792 c 40,0 74,15 103,45 29,29 44,63 44,103 0,42 -15,78 -44,107 -29,29 -64,43 -105,43 -42,0 -78,-14 -107,-43 -29,-30 -43,-65 -43,-107 0,-41 14,-76 43,-105 30,-29 67,-43 109,-43 z m 103,1005 c 29,29 44,64 44,106 0,41 -15,76 -44,105 -31,29 -66,43 -105,43 -21,0 -41,-4 -59,-12 -18,-7 -34,-18 -48,-31 -13,-14 -24,-29 -31,-48 -8,-18 -12,-38 -12,-59 0,-41 14,-76 43,-105 30,-29 67,-44 109,-44 40,0 74,15 103,45 z"
         id="path4328"
         inkscape:connector-curvature="0"
         style="fill:#ffffff;stroke:none" /><path
         d="m 851,12433 c -32,48 -78,86 -138,114 -61,27 -133,41 -216,41 -99,0 -181,-19 -246,-56 -46,-27 -84,-64 -112,-109 -29,-45 -43,-89 -43,-132 0,-25 8,-46 25,-64 18,-17 40,-26 66,-26 22,0 40,7 55,21 15,13 28,34 38,61 13,32 27,59 42,81 15,21 36,39 63,53 27,14 63,21 107,21 61,0 110,-14 148,-42 38,-29 57,-64 57,-106 0,-34 -10,-61 -31,-82 -20,-21 -46,-37 -79,-48 -32,-11 -76,-22 -130,-35 -73,-17 -133,-37 -183,-60 -49,-22 -87,-53 -116,-93 -29,-39 -43,-88 -43,-146 0,-56 15,-106 45,-149 31,-43 75,-76 132,-99 57,-24 125,-35 203,-35 61,0 115,8 160,23 45,15 83,36 113,61 30,26 52,53 65,81 14,28 21,55 21,82 0,24 -9,46 -26,66 -17,19 -38,29 -64,29 -23,0 -41,-6 -53,-18 -12,-11 -25,-31 -39,-57 -19,-38 -41,-68 -67,-90 -25,-21 -67,-32 -124,-32 -53,0 -95,12 -128,35 -32,23 -48,51 -48,84 0,20 5,38 16,52 11,15 26,28 46,38 19,11 38,19 58,25 20,6 53,15 98,26 57,14 109,29 155,45 46,16 85,35 117,58 32,23 58,52 76,87 18,36 27,79 27,130 0,61 -16,116 -47,165 z"
         id="path4330"
         inkscape:connector-curvature="0"
         style="fill:#809cc9;stroke:none" /><path
         d="m 1710,11667 c 0,-41 9,-72 28,-93 18,-21 43,-31 73,-31 32,0 57,10 76,31 19,21 28,52 28,93 l 0,498 c 0,57 6,104 19,142 12,38 35,68 67,89 32,21 77,31 134,31 80,0 136,-21 169,-64 33,-42 50,-107 50,-194 l 0,-502 c 0,-42 9,-73 27,-93 19,-21 43,-31 74,-31 31,0 56,10 75,31 19,20 29,51 29,93 l 0,487 c 0,79 -8,145 -23,198 -16,53 -45,99 -88,139 -36,34 -79,58 -128,74 -48,15 -105,23 -170,23 -78,0 -145,-8 -201,-25 -56,-17 -101,-43 -137,-78 -35,-35 -61,-80 -77,-135 -17,-55 -25,-121 -25,-197 l 0,-486 z"
         id="path4332"
         inkscape:connector-curvature="0"
         style="fill:#809cc9;stroke:none" /><path
         d="m 3537,12571 c -44,0 -76,-10 -95,-30 -19,-20 -29,-52 -29,-96 l 0,-759 c 0,-45 10,-77 29,-96 20,-20 52,-29 95,-29 l 328,0 c 49,0 90,2 126,8 35,6 67,18 95,34 24,15 45,33 63,55 19,21 33,45 42,72 10,26 15,54 15,83 0,102 -51,175 -152,222 133,43 199,125 199,247 0,57 -14,108 -43,153 -29,46 -68,79 -117,101 -31,13 -66,21 -107,27 -39,5 -86,8 -140,8 l -309,0 z m 81,-858 0,262 188,0 c 51,0 90,-5 118,-14 28,-10 49,-29 64,-56 12,-19 17,-41 17,-65 0,-51 -18,-85 -54,-102 -36,-17 -92,-25 -167,-25 l -166,0 z m 0,408 0,297 220,0 c 139,0 208,-50 208,-151 0,-51 -18,-88 -54,-112 -36,-23 -89,-34 -160,-34 l -214,0 z"
         id="path4334"
         inkscape:connector-curvature="0"
         style="fill:#809cc9;stroke:none" /><path
         d="m 5443,12355 229,-683 c 13,-36 21,-61 27,-74 6,-14 16,-27 30,-38 14,-12 33,-17 56,-17 18,0 34,4 49,13 15,9 27,20 35,35 9,14 13,29 13,44 0,10 -2,21 -4,32 -3,12 -6,24 -11,35 -4,11 -8,23 -12,35 l -244,660 c -9,25 -18,50 -26,72 -9,23 -19,43 -31,60 -11,17 -27,32 -46,43 -19,11 -42,16 -69,16 -28,0 -51,-5 -70,-16 -19,-11 -35,-25 -46,-43 -12,-17 -22,-37 -31,-60 -9,-23 -17,-47 -26,-72 l -240,-655 c -5,-12 -9,-24 -13,-35 -5,-12 -8,-24 -11,-37 -3,-14 -5,-25 -5,-34 0,-24 10,-45 29,-64 18,-20 42,-29 70,-29 35,0 60,10 75,32 14,21 29,55 44,102 l 228,678 z"
         id="path4336"
         inkscape:connector-curvature="0"
         style="fill:#999999;stroke:none" /><path
         d="m 6877,11717 0,249 425,0 c 31,0 54,7 70,21 15,14 23,33 23,56 0,23 -8,41 -23,56 -15,14 -39,22 -70,22 l -425,0 0,289 477,0 c 32,0 57,7 73,22 16,15 24,34 24,59 0,23 -8,43 -24,57 -16,15 -41,23 -73,23 l -556,0 c -45,0 -77,-10 -96,-30 -20,-20 -30,-52 -30,-96 l 0,-759 c 0,-30 5,-53 13,-72 9,-19 23,-32 41,-41 19,-8 43,-12 72,-12 l 540,0 c 33,0 57,7 73,21 16,14 24,33 24,56 0,24 -8,43 -24,57 -16,15 -40,22 -73,22 l -461,0 z"
         id="path4338"
         inkscape:connector-curvature="0"
         style="fill:#999999;stroke:none" /><path
         d="m 8452,12138 0,325 c 0,43 -10,75 -29,95 -18,20 -43,30 -74,30 -32,0 -57,-10 -76,-32 -17,-21 -26,-52 -26,-93 l 0,-777 c 0,-44 10,-76 29,-96 20,-20 52,-29 96,-29 l 333,0 c 46,0 85,1 118,5 32,4 62,12 88,24 32,13 60,32 84,57 24,25 43,54 55,86 13,33 19,68 19,105 0,75 -21,136 -63,181 -43,45 -107,77 -194,95 37,20 71,48 104,86 33,38 63,78 89,120 26,43 46,81 61,115 14,35 21,58 21,71 0,14 -4,27 -12,40 -9,13 -21,23 -35,31 -15,7 -32,11 -51,11 -23,0 -42,-5 -58,-16 -16,-11 -29,-25 -40,-41 -12,-17 -27,-41 -46,-73 l -82,-137 c -30,-50 -56,-88 -79,-114 -23,-27 -47,-44 -71,-54 -23,-10 -53,-15 -90,-15 l -71,0 z m 0,-425 0,280 183,0 c 49,0 90,-5 124,-13 33,-9 59,-23 77,-44 17,-20 26,-49 26,-85 0,-28 -7,-53 -21,-75 -15,-21 -34,-37 -60,-48 -23,-10 -70,-15 -141,-15 l -188,0 z"
         id="path4340"
         inkscape:connector-curvature="0"
         style="fill:#999999;stroke:none" /><path
         d="m 10619,12433 c -31,48 -77,86 -138,114 -61,27 -132,41 -215,41 -100,0 -182,-19 -247,-56 -46,-27 -83,-64 -112,-109 -29,-45 -43,-89 -43,-132 0,-25 9,-46 26,-64 17,-17 39,-26 66,-26 21,0 40,7 55,21 14,13 27,34 38,61 13,32 27,59 41,81 16,21 37,39 64,53 27,14 63,21 107,21 60,0 110,-14 148,-42 38,-29 57,-64 57,-106 0,-34 -11,-61 -31,-82 -21,-21 -47,-37 -80,-48 -32,-11 -75,-22 -130,-35 -72,-17 -133,-37 -182,-60 -49,-22 -88,-53 -117,-93 -28,-39 -43,-88 -43,-146 0,-56 15,-106 46,-149 30,-43 74,-76 131,-99 58,-24 125,-35 203,-35 62,0 115,8 161,23 45,15 83,36 112,61 30,26 52,53 66,81 14,28 20,55 20,82 0,24 -8,46 -25,66 -17,19 -39,29 -64,29 -24,0 -41,-6 -54,-18 -12,-11 -25,-31 -39,-57 -18,-38 -40,-68 -66,-90 -26,-21 -67,-32 -124,-32 -53,0 -96,12 -128,35 -33,23 -49,51 -49,84 0,20 5,38 17,52 11,15 26,28 45,38 20,11 39,19 59,25 19,6 52,15 98,26 57,14 108,29 154,45 46,16 85,35 118,58 32,23 57,52 75,87 18,36 27,79 27,130 0,61 -15,116 -47,165 z"
         id="path4342"
         inkscape:connector-curvature="0"
         style="fill:#999999;stroke:none" /><path
         d="m 11485,11667 c 0,-41 9,-72 28,-93 19,-21 43,-31 73,-31 31,0 56,10 75,31 19,20 29,51 29,93 l 0,796 c 0,42 -10,73 -29,94 -19,21 -44,31 -75,31 -29,0 -53,-10 -73,-31 -19,-21 -28,-52 -28,-94 l 0,-796 z"
         id="path4344"
         inkscape:connector-curvature="0"
         style="fill:#999999;stroke:none" /><path
         d="m 13267,11607 c 75,42 131,103 170,181 39,78 58,170 58,276 0,78 -11,149 -32,213 -21,64 -53,120 -95,166 -42,47 -94,83 -155,108 -62,25 -132,37 -211,37 -79,0 -150,-13 -212,-38 -63,-26 -115,-62 -157,-108 -41,-46 -73,-102 -94,-168 -22,-65 -32,-135 -32,-211 0,-78 11,-149 33,-214 22,-65 54,-120 97,-166 42,-45 93,-80 154,-104 61,-24 129,-36 206,-36 105,0 195,21 270,64 z m -15,262 c -24,-54 -58,-95 -102,-123 -45,-28 -96,-42 -153,-42 -40,0 -78,8 -113,23 -34,15 -64,38 -89,68 -25,29 -45,67 -59,113 -15,46 -22,97 -22,155 0,57 7,110 22,156 14,47 35,86 61,116 26,31 57,54 91,69 34,16 71,23 112,23 52,0 100,-13 144,-39 44,-27 79,-67 105,-122 26,-55 39,-123 39,-203 0,-75 -12,-139 -36,-194 z"
         id="path4346"
         inkscape:connector-curvature="0"
         style="fill:#999999;stroke:none" /><path
         d="m 14968,12262 0,-602 c 0,-39 8,-68 25,-88 17,-20 39,-29 67,-29 30,0 53,9 70,29 17,20 25,49 25,88 l 0,795 c 0,89 -36,133 -110,133 -18,0 -35,-2 -49,-8 -15,-5 -29,-13 -42,-25 -12,-11 -24,-25 -35,-40 -12,-16 -22,-31 -33,-48 l -386,-589 0,593 c 0,38 -9,68 -27,87 -18,20 -41,30 -69,30 -29,0 -52,-10 -69,-30 -18,-20 -27,-49 -27,-87 l 0,-780 c 0,-33 4,-59 11,-78 9,-21 24,-37 44,-51 20,-13 42,-19 66,-19 18,0 34,3 47,9 13,6 25,14 34,24 10,10 20,23 31,39 10,16 21,33 32,51 l 395,596 z"
         id="path4348"
         inkscape:connector-curvature="0"
         style="fill:#999999;stroke:none" /><path
         d="m 0,13086 15240,0"
         id="path4350"
         inkscape:connector-curvature="0"
         style="fill:none;stroke:#809cc9;stroke-width:141" /><rect
         x="0"
         y="0"
         width="15241"
         height="13157"
         id="rect4352"
         style="fill:none;stroke:none" /></g></g></svg>