<?xml version="1.0" encoding="UTF-8" standalone="no"?>
<!-- Created with Inkscape (http://www.inkscape.org/) -->
<svg
   xmlns:xml="http://www.w3.org/XML/1998/namespace"
   xmlns:dc="http://purl.org/dc/elements/1.1/"
   xmlns:cc="http://web.resource.org/cc/"
   xmlns:rdf="http://www.w3.org/1999/02/22-rdf-syntax-ns#"
   xmlns:svg="http://www.w3.org/2000/svg"
   xmlns="http://www.w3.org/2000/svg"
   xmlns:sodipodi="http://inkscape.sourceforge.net/DTD/sodipodi-0.dtd"
   xmlns:inkscape="http://www.inkscape.org/namespaces/inkscape"
   sodipodi:docbase="G:\MyDocs\temp\svnlogo"
   sodipodi:docname="svnlogo.svg"
   inkscape:version="0.40+cvs"
   sodipodi:version="0.32"
   version="1.0"
   x="0.00000000"
   y="0.00000000"
   width="157.00900"
   height="94.082001"
   viewBox="0 0 157.009 94.082"
   id="svg2"
   xml:space="preserve"><metadata
   id="metadata24"><rdf:RDF
     id="RDF26"><cc:Work
       id="Work28"
       rdf:about=""><dc:format
         id="format30">image/svg+xml</dc:format><dc:type
         rdf:resource="http://purl.org/dc/dcmitype/StillImage"
         id="type32" /></cc:Work></rdf:RDF></metadata><sodipodi:namedview
   inkscape:current-layer="svg2"
   inkscape:window-y="22"
   inkscape:window-x="-4"
   inkscape:cy="47.041000"
   inkscape:cx="78.504500"
   inkscape:zoom="3.6563848"
   id="base"
   pagecolor="#ffffff"
   bordercolor="#666666"
   borderopacity="1.0"
   inkscape:pageopacity="0.0"
   inkscape:pageshadow="2"
   inkscape:window-width="1152"
   inkscape:window-height="785" />
   <defs
   id="defs84">

		</defs>

		<g
   id="g46">
				<g
   id="Layer_1">
					<path
   d="M 129.43800,0.87500000 L 21.475000,0.87500000 L 21.475000,79.637000 L 129.43900,79.637000 L 129.43900,0.87500000 L 129.43800,0.87500000 z "
   style="fill:#809cc9"
   id="path49" />
					<g
   id="g51">
						<path
   d="M 130.37200,0.00000000 L 132.03400,6.5830000 C 116.74900,8.7990000 103.14800,11.411000 91.232000,14.420000 C 78.375000,17.667000 68.034000,20.966000 60.207000,24.316000 C 52.363000,27.600000 48.700000,30.268000 49.217000,32.316000 C 49.673000,34.123000 52.952000,34.942000 59.080000,34.769000 C 62.221000,34.711000 67.332000,34.370000 74.415000,33.741000 C 81.498000,33.115000 90.636000,32.205000 101.83000,31.015000 C 122.42900,28.871000 136.59200,27.938000 144.32100,28.215000 C 152.03200,28.425000 156.26500,29.999000 157.00900,32.940000 C 158.01600,36.928000 150.70500,42.271000 135.07800,48.966000 C 119.42100,55.599000 99.198000,62.042000 74.426000,68.298000 C 53.572000,73.563000 35.593000,77.327000 20.487000,79.589000 L 18.842000,73.079000 C 36.710000,70.524000 52.779000,67.446000 67.047000,63.843000 C 80.373000,60.479000 90.641000,57.214000 97.847000,54.044000 C 105.05200,50.875000 108.38000,48.204000 107.83000,46.025000 C 107.35300,44.139000 104.02500,43.176000 97.857000,43.134000 C 94.698000,43.168000 90.347000,43.391000 84.795000,43.802000 C 79.229000,44.216000 72.316000,44.858000 64.056000,45.725000 C 51.242000,47.100000 40.594000,48.140000 32.126000,48.846000 C 23.646000,49.555000 17.325000,49.897000 13.150000,49.876000 C 5.1400000,49.802000 0.76000000,48.256000 0.00000000,45.248000 C -1.0240000,41.187000 5.7400000,36.053000 20.295000,29.845000 C 35.002000,23.577000 54.925000,17.269000 80.090000,10.915000 C 97.494000,6.5210000 114.25400,2.8830000 130.37200,0.00000000 z "
   style="fill:#ffffff"
   id="path53" />
      			</g>
					<g
   id="g55">
						<path
   d="M 26.125000,56.078000 C 26.404000,56.078000 26.646000,56.183000 26.853000,56.394000 C 27.058000,56.599000 27.162000,56.845000 27.162000,57.130000 C 27.162000,57.427000 27.058000,57.678000 26.853000,57.884000 C 26.647000,58.089000 26.399000,58.192000 26.108000,58.192000 C 25.811000,58.192000 25.560000,58.089000 25.355000,57.883000 C 25.149000,57.672000 25.046000,57.421000 25.046000,57.130000 C 25.046000,56.833000 25.149000,56.585000 25.355000,56.385000 C 25.565000,56.181000 25.822000,56.078000 26.125000,56.078000 z M 26.125000,62.881000 C 26.404000,62.881000 26.646000,62.988000 26.853000,63.199000 C 27.058000,63.406000 27.162000,63.655000 27.162000,63.947000 C 27.162000,64.239000 27.058000,64.488000 26.853000,64.695000 C 26.636000,64.896000 26.388000,64.996000 26.108000,64.996000 C 25.960000,64.996000 25.821000,64.969000 25.693000,64.914000 C 25.565000,64.860000 25.452000,64.786000 25.355000,64.691000 C 25.257000,64.596000 25.182000,64.485000 25.127000,64.355000 C 25.072000,64.226000 25.046000,64.087000 25.046000,63.938000 C 25.046000,63.646000 25.149000,63.396000 25.355000,63.190000 C 25.565000,62.984000 25.822000,62.881000 26.125000,62.881000 z "
   style="fill:#ffffff"
   id="path57" />
						<path
   d="M 29.779000,56.078000 C 30.059000,56.078000 30.301000,56.183000 30.507000,56.394000 C 30.713000,56.599000 30.816000,56.845000 30.816000,57.130000 C 30.816000,57.427000 30.713000,57.678000 30.507000,57.884000 C 30.302000,58.089000 30.054000,58.192000 29.763000,58.192000 C 29.466000,58.192000 29.214000,58.089000 29.009000,57.883000 C 28.803000,57.672000 28.700000,57.421000 28.700000,57.130000 C 28.700000,56.833000 28.803000,56.585000 29.009000,56.385000 C 29.220000,56.181000 29.477000,56.078000 29.779000,56.078000 z M 29.779000,62.881000 C 30.059000,62.881000 30.301000,62.988000 30.507000,63.199000 C 30.713000,63.406000 30.816000,63.655000 30.816000,63.947000 C 30.816000,64.239000 30.713000,64.488000 30.507000,64.695000 C 30.290000,64.896000 30.042000,64.996000 29.763000,64.996000 C 29.615000,64.996000 29.476000,64.969000 29.347000,64.914000 C 29.219000,64.860000 29.106000,64.786000 29.009000,64.691000 C 28.912000,64.596000 28.836000,64.485000 28.782000,64.355000 C 28.727000,64.226000 28.700000,64.087000 28.700000,63.938000 C 28.700000,63.646000 28.803000,63.396000 29.009000,63.190000 C 29.220000,62.984000 29.477000,62.881000 29.779000,62.881000 z "
   style="fill:#ffffff"
   id="path59" />
					</g>
					<path
   d="M 27.712000,87.417000 C 27.712000,87.850000 27.601000,88.239000 27.378000,88.584000 C 27.155000,88.929000 26.829000,89.199000 26.399000,89.395000 C 25.970000,89.590000 25.461000,89.688000 24.874000,89.688000 C 24.168000,89.688000 23.586000,89.554000 23.128000,89.288000 C 22.802000,89.097000 22.537000,88.840000 22.334000,88.519000 C 22.130000,88.198000 22.028000,87.886000 22.028000,87.583000 C 22.028000,87.407000 22.089000,87.257000 22.212000,87.131000 C 22.333000,87.006000 22.489000,86.943000 22.678000,86.943000 C 22.831000,86.943000 22.960000,86.992000 23.067000,87.089000 C 23.174000,87.186000 23.263000,87.332000 23.338000,87.525000 C 23.429000,87.753000 23.527000,87.943000 23.634000,88.096000 C 23.739000,88.249000 23.888000,88.375000 24.081000,88.475000 C 24.272000,88.575000 24.525000,88.624000 24.839000,88.624000 C 25.269000,88.624000 25.618000,88.523000 25.887000,88.323000 C 26.156000,88.123000 26.290000,87.872000 26.290000,87.573000 C 26.290000,87.335000 26.218000,87.141000 26.072000,86.993000 C 25.927000,86.846000 25.740000,86.732000 25.510000,86.654000 C 25.280000,86.576000 24.973000,86.493000 24.588000,86.405000 C 24.073000,86.284000 23.643000,86.143000 23.295000,85.981000 C 22.948000,85.821000 22.673000,85.600000 22.470000,85.322000 C 22.266000,85.044000 22.164000,84.697000 22.164000,84.284000 C 22.164000,83.889000 22.271000,83.539000 22.486000,83.233000 C 22.701000,82.926000 23.011000,82.691000 23.418000,82.526000 C 23.825000,82.362000 24.303000,82.280000 24.854000,82.280000 C 25.292000,82.280000 25.672000,82.335000 25.993000,82.443000 C 26.313000,82.552000 26.580000,82.698000 26.791000,82.878000 C 27.003000,83.060000 27.157000,83.249000 27.255000,83.448000 C 27.353000,83.646000 27.401000,83.841000 27.401000,84.029000 C 27.401000,84.202000 27.340000,84.357000 27.219000,84.496000 C 27.097000,84.635000 26.946000,84.704000 26.764000,84.704000 C 26.599000,84.704000 26.473000,84.662000 26.388000,84.579000 C 26.302000,84.496000 26.209000,84.360000 26.109000,84.171000 C 25.978000,83.900000 25.822000,83.690000 25.639000,83.538000 C 25.456000,83.386000 25.163000,83.311000 24.759000,83.311000 C 24.385000,83.311000 24.082000,83.393000 23.853000,83.557000 C 23.624000,83.722000 23.508000,83.920000 23.508000,84.151000 C 23.508000,84.295000 23.547000,84.419000 23.625000,84.523000 C 23.703000,84.627000 23.811000,84.716000 23.947000,84.792000 C 24.083000,84.868000 24.222000,84.926000 24.363000,84.968000 C 24.504000,85.011000 24.734000,85.072000 25.057000,85.154000 C 25.459000,85.249000 25.824000,85.353000 26.150000,85.467000 C 26.476000,85.581000 26.754000,85.719000 26.982000,85.882000 C 27.211000,86.045000 27.390000,86.251000 27.518000,86.500000 C 27.646000,86.749000 27.712000,87.056000 27.712000,87.417000 z "
   style="fill:#809cc9"
   id="path61" />
					<path
   d="M 33.464000,86.604000 L 33.464000,83.160000 C 33.464000,82.867000 33.530000,82.647000 33.662000,82.501000 C 33.794000,82.355000 33.968000,82.281000 34.183000,82.281000 C 34.409000,82.281000 34.587000,82.354000 34.719000,82.501000 C 34.851000,82.648000 34.917000,82.868000 34.917000,83.162000 L 34.917000,86.691000 C 34.917000,87.092000 34.962000,87.427000 35.051000,87.697000 C 35.140000,87.967000 35.298000,88.176000 35.526000,88.324000 C 35.753000,88.472000 36.071000,88.547000 36.480000,88.547000 C 37.044000,88.547000 37.443000,88.396000 37.676000,88.094000 C 37.909000,87.792000 38.027000,87.334000 38.027000,86.721000 L 38.027000,83.162000 C 38.027000,82.865000 38.092000,82.643000 38.222000,82.498000 C 38.353000,82.353000 38.527000,82.281000 38.745000,82.281000 C 38.963000,82.281000 39.141000,82.353000 39.276000,82.498000 C 39.411000,82.644000 39.479000,82.864000 39.479000,83.161000 L 39.479000,86.609000 C 39.479000,87.170000 39.424000,87.637000 39.315000,88.012000 C 39.206000,88.387000 39.000000,88.717000 38.696000,89.001000 C 38.436000,89.239000 38.134000,89.413000 37.790000,89.522000 C 37.444000,89.631000 37.042000,89.687000 36.580000,89.687000 C 36.030000,89.687000 35.558000,89.626000 35.161000,89.508000 C 34.765000,89.389000 34.440000,89.205000 34.190000,88.956000 C 33.940000,88.707000 33.756000,88.388000 33.639000,87.998000 C 33.522000,87.610000 33.464000,87.145000 33.464000,86.604000 z "
   style="fill:#809cc9"
   id="path63" />
					<path
   d="M 48.601000,89.562000 L 46.411000,89.562000 C 46.095000,89.562000 45.869000,89.491000 45.734000,89.349000 C 45.598000,89.207000 45.531000,88.982000 45.531000,88.673000 L 45.531000,83.293000 C 45.531000,82.978000 45.600000,82.751000 45.739000,82.612000 C 45.877000,82.473000 46.101000,82.405000 46.411000,82.405000 L 48.734000,82.405000 C 49.076000,82.405000 49.373000,82.426000 49.624000,82.467000 C 49.875000,82.508000 50.100000,82.590000 50.299000,82.709000 C 50.468000,82.810000 50.617000,82.938000 50.747000,83.092000 C 50.877000,83.246000 50.976000,83.417000 51.045000,83.604000 C 51.113000,83.792000 51.148000,83.989000 51.148000,84.197000 C 51.148000,84.913000 50.791000,85.436000 50.075000,85.768000 C 51.014000,86.068000 51.485000,86.652000 51.485000,87.519000 C 51.485000,87.920000 51.382000,88.282000 51.177000,88.602000 C 50.972000,88.923000 50.696000,89.161000 50.348000,89.314000 C 50.129000,89.405000 49.878000,89.468000 49.594000,89.505000 C 49.310000,89.544000 48.979000,89.562000 48.601000,89.562000 z M 46.983000,83.484000 L 46.983000,85.343000 L 48.313000,85.343000 C 48.674000,85.343000 48.954000,85.308000 49.151000,85.239000 C 49.348000,85.170000 49.499000,85.040000 49.604000,84.846000 C 49.685000,84.709000 49.726000,84.555000 49.726000,84.385000 C 49.726000,84.022000 49.597000,83.781000 49.339000,83.661000 C 49.082000,83.542000 48.689000,83.482000 48.161000,83.482000 L 46.983000,83.482000 L 46.983000,83.484000 z M 48.494000,86.375000 L 46.983000,86.375000 L 46.983000,88.484000 L 48.543000,88.484000 C 49.524000,88.484000 50.015000,88.127000 50.015000,87.414000 C 50.015000,87.050000 49.888000,86.785000 49.634000,86.621000 C 49.379000,86.457000 48.999000,86.375000 48.494000,86.375000 z "
   style="fill:#809cc9"
   id="path65" />
					<path
   d="M 58.295000,83.232000 L 59.913000,88.031000 L 61.537000,83.198000 C 61.622000,82.944000 61.684000,82.767000 61.727000,82.669000 C 61.769000,82.570000 61.838000,82.481000 61.936000,82.400000 C 62.034000,82.319000 62.167000,82.281000 62.336000,82.281000 C 62.459000,82.281000 62.574000,82.311000 62.680000,82.373000 C 62.785000,82.435000 62.868000,82.518000 62.928000,82.620000 C 62.989000,82.723000 63.019000,82.826000 63.019000,82.931000 C 63.019000,83.002000 63.009000,83.080000 62.990000,83.162000 C 62.970000,83.246000 62.946000,83.327000 62.917000,83.407000 C 62.888000,83.486000 62.858000,83.569000 62.829000,83.653000 L 61.099000,88.334000 C 61.037000,88.513000 60.975000,88.684000 60.913000,88.845000 C 60.851000,89.006000 60.780000,89.148000 60.698000,89.270000 C 60.617000,89.392000 60.509000,89.493000 60.374000,89.571000 C 60.239000,89.648000 60.074000,89.688000 59.880000,89.688000 C 59.685000,89.688000 59.520000,89.649000 59.385000,89.573000 C 59.249000,89.497000 59.141000,89.395000 59.058000,89.270000 C 58.975000,89.145000 58.903000,89.002000 58.841000,88.842000 C 58.779000,88.683000 58.718000,88.513000 58.655000,88.334000 L 56.954000,83.692000 C 56.925000,83.608000 56.894000,83.525000 56.863000,83.443000 C 56.833000,83.362000 56.806000,83.274000 56.786000,83.179000 C 56.765000,83.085000 56.754000,83.005000 56.754000,82.940000 C 56.754000,82.774000 56.820000,82.623000 56.954000,82.486000 C 57.087000,82.349000 57.255000,82.281000 57.456000,82.281000 C 57.703000,82.281000 57.878000,82.356000 57.980000,82.508000 C 58.082000,82.660000 58.188000,82.900000 58.295000,83.232000 z "
   style="fill:#999999"
   id="path67" />
					<path
   d="M 73.338000,83.516000 L 70.071000,83.516000 L 70.071000,85.282000 L 73.079000,85.282000 C 73.300000,85.282000 73.466000,85.331000 73.575000,85.430000 C 73.683000,85.530000 73.738000,85.660000 73.738000,85.823000 C 73.738000,85.986000 73.684000,86.119000 73.577000,86.221000 C 73.470000,86.323000 73.304000,86.375000 73.079000,86.375000 L 70.071000,86.375000 L 70.071000,88.422000 L 73.450000,88.422000 C 73.678000,88.422000 73.849000,88.474000 73.966000,88.578000 C 74.081000,88.683000 74.139000,88.822000 74.139000,88.996000 C 74.139000,89.164000 74.081000,89.301000 73.966000,89.405000 C 73.850000,89.509000 73.678000,89.562000 73.450000,89.562000 L 69.509000,89.562000 C 69.193000,89.562000 68.965000,89.492000 68.826000,89.351000 C 68.687000,89.211000 68.618000,88.986000 68.618000,88.673000 L 68.618000,83.293000 C 68.618000,83.085000 68.649000,82.915000 68.711000,82.783000 C 68.773000,82.651000 68.870000,82.555000 69.002000,82.495000 C 69.134000,82.435000 69.303000,82.405000 69.509000,82.405000 L 73.338000,82.405000 C 73.569000,82.405000 73.741000,82.456000 73.853000,82.557000 C 73.966000,82.659000 74.022000,82.791000 74.022000,82.956000 C 74.022000,83.124000 73.966000,83.259000 73.853000,83.360000 C 73.741000,83.465000 73.569000,83.516000 73.338000,83.516000 z "
   style="fill:#999999"
   id="path69" />
					<path
   d="M 81.732000,86.500000 L 81.225000,86.500000 L 81.225000,88.803000 C 81.225000,89.106000 81.159000,89.328000 81.024000,89.472000 C 80.891000,89.616000 80.716000,89.688000 80.501000,89.688000 C 80.270000,89.688000 80.091000,89.613000 79.963000,89.463000 C 79.836000,89.313000 79.773000,89.093000 79.773000,88.803000 L 79.773000,83.295000 C 79.773000,82.983000 79.843000,82.756000 79.983000,82.615000 C 80.123000,82.475000 80.349000,82.406000 80.662000,82.406000 L 83.019000,82.406000 C 83.344000,82.406000 83.623000,82.420000 83.854000,82.447000 C 84.084000,82.474000 84.293000,82.530000 84.479000,82.613000 C 84.703000,82.708000 84.902000,82.843000 85.074000,83.019000 C 85.247000,83.195000 85.378000,83.399000 85.467000,83.631000 C 85.557000,83.864000 85.602000,84.110000 85.602000,84.371000 C 85.602000,84.905000 85.452000,85.331000 85.151000,85.650000 C 84.850000,85.969000 84.393000,86.196000 83.782000,86.329000 C 84.039000,86.466000 84.284000,86.668000 84.518000,86.934000 C 84.752000,87.202000 84.961000,87.486000 85.146000,87.788000 C 85.330000,88.089000 85.473000,88.361000 85.575000,88.603000 C 85.679000,88.846000 85.729000,89.013000 85.729000,89.104000 C 85.729000,89.199000 85.699000,89.292000 85.639000,89.385000 C 85.578000,89.478000 85.496000,89.551000 85.392000,89.605000 C 85.288000,89.659000 85.168000,89.686000 85.032000,89.686000 C 84.869000,89.686000 84.732000,89.647000 84.622000,89.571000 C 84.511000,89.495000 84.416000,89.397000 84.337000,89.280000 C 84.257000,89.163000 84.149000,88.990000 84.013000,88.761000 L 83.432000,87.793000 C 83.224000,87.438000 83.037000,87.168000 82.873000,86.981000 C 82.709000,86.795000 82.542000,86.669000 82.373000,86.600000 C 82.204000,86.531000 81.989000,86.500000 81.732000,86.500000 z M 82.562000,83.484000 L 81.226000,83.484000 L 81.226000,85.468000 L 82.523000,85.468000 C 82.871000,85.468000 83.164000,85.437000 83.401000,85.376000 C 83.638000,85.315000 83.820000,85.212000 83.945000,85.066000 C 84.070000,84.920000 84.133000,84.718000 84.133000,84.462000 C 84.133000,84.262000 84.082000,84.085000 83.982000,83.933000 C 83.882000,83.781000 83.742000,83.666000 83.563000,83.590000 C 83.393000,83.520000 83.060000,83.484000 82.562000,83.484000 z "
   style="fill:#999999"
   id="path71" />
					<path
   d="M 96.914000,87.417000 C 96.914000,87.850000 96.803000,88.239000 96.580000,88.584000 C 96.357000,88.929000 96.031000,89.199000 95.602000,89.395000 C 95.172000,89.590000 94.664000,89.688000 94.075000,89.688000 C 93.370000,89.688000 92.788000,89.554000 92.330000,89.288000 C 92.004000,89.097000 91.739000,88.840000 91.536000,88.519000 C 91.332000,88.198000 91.230000,87.886000 91.230000,87.583000 C 91.230000,87.407000 91.292000,87.257000 91.413000,87.131000 C 91.536000,87.006000 91.691000,86.943000 91.880000,86.943000 C 92.033000,86.943000 92.163000,86.992000 92.269000,87.089000 C 92.375000,87.186000 92.465000,87.332000 92.540000,87.525000 C 92.631000,87.753000 92.729000,87.943000 92.835000,88.096000 C 92.941000,88.249000 93.091000,88.375000 93.282000,88.475000 C 93.475000,88.575000 93.727000,88.624000 94.040000,88.624000 C 94.471000,88.624000 94.819000,88.523000 95.089000,88.323000 C 95.358000,88.123000 95.492000,87.872000 95.492000,87.573000 C 95.492000,87.335000 95.420000,87.141000 95.274000,86.993000 C 95.129000,86.846000 94.942000,86.732000 94.712000,86.654000 C 94.483000,86.576000 94.176000,86.493000 93.791000,86.405000 C 93.276000,86.284000 92.846000,86.143000 92.499000,85.981000 C 92.151000,85.821000 91.876000,85.600000 91.673000,85.322000 C 91.469000,85.044000 91.367000,84.697000 91.367000,84.284000 C 91.367000,83.889000 91.474000,83.539000 91.689000,83.233000 C 91.904000,82.926000 92.214000,82.691000 92.621000,82.526000 C 93.028000,82.362000 93.507000,82.280000 94.056000,82.280000 C 94.495000,82.280000 94.875000,82.335000 95.196000,82.443000 C 95.516000,82.552000 95.783000,82.698000 95.994000,82.878000 C 96.206000,83.060000 96.360000,83.249000 96.458000,83.448000 C 96.556000,83.646000 96.604000,83.841000 96.604000,84.029000 C 96.604000,84.202000 96.543000,84.357000 96.421000,84.496000 C 96.300000,84.635000 96.149000,84.704000 95.967000,84.704000 C 95.802000,84.704000 95.677000,84.662000 95.591000,84.579000 C 95.505000,84.496000 95.411000,84.360000 95.312000,84.171000 C 95.181000,83.900000 95.025000,83.690000 94.842000,83.538000 C 94.659000,83.386000 94.366000,83.311000 93.962000,83.311000 C 93.587000,83.311000 93.285000,83.393000 93.056000,83.557000 C 92.826000,83.722000 92.711000,83.920000 92.711000,84.151000 C 92.711000,84.295000 92.750000,84.419000 92.828000,84.523000 C 92.906000,84.627000 93.014000,84.716000 93.151000,84.792000 C 93.288000,84.867000 93.426000,84.926000 93.566000,84.968000 C 93.706000,85.011000 93.937000,85.072000 94.260000,85.154000 C 94.662000,85.249000 95.027000,85.353000 95.353000,85.467000 C 95.679000,85.581000 95.957000,85.719000 96.186000,85.882000 C 96.415000,86.045000 96.592000,86.251000 96.721000,86.500000 C 96.850000,86.750000 96.914000,87.056000 96.914000,87.417000 z "
   style="fill:#999999"
   id="path73" />
					<path
   d="M 102.71300,88.803000 L 102.71300,83.160000 C 102.71300,82.867000 102.77900,82.647000 102.91300,82.501000 C 103.04700,82.355000 103.22000,82.281000 103.43300,82.281000 C 103.65100,82.281000 103.82800,82.353000 103.96300,82.498000 C 104.09900,82.644000 104.16600,82.863000 104.16600,83.160000 L 104.16600,88.803000 C 104.16600,89.100000 104.09900,89.321000 103.96300,89.467000 C 103.82700,89.613000 103.65100,89.688000 103.43300,89.688000 C 103.22400,89.688000 103.05100,89.614000 102.91600,89.465000 C 102.78000,89.316000 102.71300,89.096000 102.71300,88.803000 z "
   style="fill:#999999"
   id="path75" />
					<path
   d="M 113.42800,82.281000 C 114.16900,82.281000 114.80500,82.431000 115.33600,82.732000 C 115.86700,83.034000 116.27000,83.462000 116.54300,84.017000 C 116.81500,84.573000 116.95200,85.224000 116.95200,85.974000 C 116.95200,86.527000 116.87700,87.031000 116.72700,87.484000 C 116.57800,87.936000 116.35400,88.329000 116.05500,88.661000 C 115.75500,88.993000 115.38800,89.248000 114.95200,89.424000 C 114.51600,89.599000 114.01700,89.688000 113.45600,89.688000 C 112.89600,89.688000 112.39600,89.597000 111.95500,89.417000 C 111.51300,89.236000 111.14300,88.981000 110.84800,88.652000 C 110.55300,88.323000 110.32900,87.927000 110.17800,87.465000 C 110.02700,87.002000 109.95100,86.502000 109.95100,85.965000 C 109.95100,85.414000 110.02900,84.909000 110.18700,84.450000 C 110.34500,83.990000 110.57300,83.599000 110.87300,83.277000 C 111.17200,82.955000 111.53500,82.708000 111.96500,82.537000 C 112.39500,82.366000 112.88200,82.281000 113.42800,82.281000 z M 115.48300,85.965000 C 115.48300,85.438000 115.39900,84.981000 115.22900,84.595000 C 115.06100,84.209000 114.82000,83.916000 114.50600,83.719000 C 114.19300,83.521000 113.83200,83.422000 113.42700,83.422000 C 113.13800,83.422000 112.87100,83.477000 112.62500,83.586000 C 112.38100,83.695000 112.16900,83.856000 111.99200,84.065000 C 111.81500,84.274000 111.67600,84.542000 111.57300,84.868000 C 111.47000,85.194000 111.42000,85.559000 111.42000,85.966000 C 111.42000,86.374000 111.47100,86.744000 111.57300,87.075000 C 111.67600,87.405000 111.82000,87.679000 112.00700,87.897000 C 112.19400,88.114000 112.40800,88.277000 112.65000,88.385000 C 112.89200,88.492000 113.15800,88.547000 113.44700,88.547000 C 113.81700,88.547000 114.15700,88.453000 114.46800,88.267000 C 114.77900,88.081000 115.02500,87.792000 115.20800,87.403000 C 115.39200,87.014000 115.48300,86.533000 115.48300,85.965000 z "
   style="fill:#999999"
   id="path77" />
					<path
   d="M 124.59000,83.150000 L 127.38800,87.375000 L 127.38800,83.111000 C 127.38800,82.835000 127.44700,82.627000 127.56600,82.488000 C 127.68400,82.349000 127.84300,82.281000 128.04500,82.281000 C 128.25300,82.281000 128.41600,82.349000 128.53700,82.488000 C 128.65600,82.627000 128.71700,82.834000 128.71700,83.111000 L 128.71700,88.744000 C 128.71700,89.373000 128.45700,89.687000 127.93700,89.687000 C 127.80700,89.687000 127.69000,89.667000 127.58600,89.630000 C 127.48200,89.592000 127.38400,89.533000 127.29300,89.451000 C 127.20200,89.370000 127.11700,89.274000 127.03900,89.165000 C 126.96100,89.056000 126.88400,88.944000 126.80600,88.830000 L 124.07700,84.655000 L 124.07700,88.854000 C 124.07700,89.128000 124.01400,89.335000 123.88700,89.475000 C 123.75900,89.616000 123.59700,89.686000 123.39800,89.686000 C 123.19300,89.686000 123.02800,89.615000 122.90400,89.473000 C 122.78000,89.331000 122.71800,89.125000 122.71800,88.855000 L 122.71800,83.330000 C 122.71800,83.096000 122.74300,82.912000 122.79600,82.778000 C 122.85800,82.632000 122.96000,82.511000 123.10500,82.419000 C 123.24800,82.326000 123.40300,82.280000 123.57000,82.280000 C 123.70000,82.280000 123.81200,82.301000 123.90500,82.343000 C 123.99800,82.385000 124.07900,82.442000 124.14900,82.514000 C 124.21900,82.586000 124.29100,82.678000 124.36500,82.792000 C 124.43600,82.908000 124.51100,83.027000 124.59000,83.150000 z "
   style="fill:#999999"
   id="path79" />
					<path
   d="M 20.979000,93.582000 L 129.23400,93.582000"
   style="fill:none;stroke:#809cc9"
   id="path81" />
				</g>
			</g>
	</svg>